<?xml version="1.0" encoding="UTF-8" standalone="no"?>
<!-- Created with Inkscape (http://www.inkscape.org/) -->

<svg
   width="31.75mm"
   height="31.749998mm"
   viewBox="0 0 31.75 31.749998"
   version="1.1"
   id="svg5"
   xml:space="preserve"
   xmlns="http://www.w3.org/2000/svg"
   xmlns:svg="http://www.w3.org/2000/svg"><defs
     id="defs2"><clipPath
       clipPathUnits="userSpaceOnUse"
       id="clipPath765"><rect
         style="opacity:0;fill:none;stroke-width:0.314949"
         id="rect767"
         width="31.75"
         height="31.75"
         x="0"
         y="0" /></clipPath></defs><g
     id="layer1"
     transform="translate(194.04779,-20.438608)"><path
       style="fill:#000000;stroke-width:0.0849589"
       d="m 75.350684,34.125969 v -2.275065 h 1.982913 1.982913 V 29.581072 27.31124 l -0.337095,-0.02798 c -0.31626,-0.02625 -0.335519,-0.04345 -0.31159,-0.27824 0.02713,-0.266223 -0.0886,-0.324218 -0.303113,-0.1519 -0.09314,0.07481 -0.08022,0.08306 0.05949,0.03797 0.122497,-0.03953 0.178462,-0.0186 0.178462,0.06676 0,0.25093 -0.506855,0.342923 -1.889398,0.342923 H 75.350687 V 25.025709 22.750644 H 77.3336 79.316513 V 20.475579 18.200515 H 77.3336 75.350687 V 15.925452 13.650388 H 77.3336 79.316513 V 11.375323 9.1002577 H 77.3336 75.350687 V 6.8251937 4.5501291 H 77.3336 79.316513 V 2.2750645 0 H 77.3336 75.350687 V 2.2750645 4.5501291 H 73.367775 71.384862 V 2.2750645 0 H 69.401949 67.419036 V 2.2750645 4.5501291 H 65.436124 63.453211 V 2.2750645 0 H 61.470298 59.487385 V 2.2750645 4.5501291 H 57.504473 55.52156 V 2.2750645 0 H 53.538647 51.555734 V 2.2750645 4.5501291 H 49.572822 47.589909 V 2.2750645 0 H 45.606996 43.624083 V 2.2750645 4.5501291 H 41.641171 39.658258 V 2.2750645 0 H 37.675345 35.692432 V 2.2750645 4.5501291 H 33.70952 31.726607 V 2.2750645 0 H 29.743694 27.760782 V 2.2750645 4.5501291 H 25.777869 23.794956 V 2.2750645 0 H 21.812043 19.829131 V 2.2750645 4.5501291 H 17.846215 15.863302 V 2.2750645 0 H 13.880389 11.897477 V 2.2750645 4.5501291 H 9.914564 7.931651 V 2.2750645 0 H 5.948738 3.965826 V 2.2750645 4.5501291 H 1.982913 0 v 2.2750646 2.275064 h 1.982913 1.982913 v 2.2750653 2.275065 H 1.982913 0 v 2.275064 2.275065 h 1.982913 1.982913 v 2.275064 2.275065 H 1.982913 0 v 2.275065 2.275064 h 1.982913 1.982913 v 2.275065 2.275064 H 1.982913 0 v 2.275065 2.275064 h 1.982913 1.982913 v -2.275064 -2.275065 h 1.982912 1.982913 v 2.275065 2.275064 h 1.982913 1.982913 v -2.275064 -2.275065 h 1.982912 1.982913 v 2.275065 2.275064 h 1.982913 1.982913 v -2.275064 -2.275065 h 1.982912 1.982913 v 2.275065 2.275064 h 1.982913 1.982913 v -2.275064 -2.275065 h 1.982912 1.982913 v 2.275065 2.275064 h 1.982913 1.982912 v -2.275064 -2.275065 h 1.982913 1.982913 v 2.275065 2.275064 h 1.982913 1.982912 v -2.275064 -2.275065 h 1.982913 1.982913 v 2.275065 2.275064 h 1.982913 1.982912 v -2.275064 -2.275065 h 1.982913 1.982913 v 2.275065 2.275064 h 1.982913 1.982912 v -2.275064 -2.275065 h 1.982913 1.982913 v 2.275065 2.275064 h 1.982913 1.982912 v -2.275064 -2.275065 h 1.982913 1.982913 v 2.275065 2.275064 h 1.982913 1.982912 z M 71.384859,29.57584 v -2.275065 h -1.982913 -1.982913 v 2.276654 2.276655 l -1.963083,-0.02434 -1.963084,-0.02434 -0.02121,-2.252314 -0.02121,-2.252314 h -1.981528 -1.981527 v 2.276654 2.276655 l -1.963083,-0.02434 -1.963084,-0.02434 -0.02122,-2.252314 -0.02121,-2.252314 h -1.981528 -1.981527 v 2.275065 2.275064 h -1.982912 -1.982913 v -2.275064 -2.275065 h -1.982913 -1.982913 v 2.276654 2.276655 l -1.963083,-0.02434 -1.963084,-0.02434 -0.02122,-2.252314 -0.02121,-2.252314 h -1.981527 -1.981528 v 2.275065 2.275064 h -1.982912 -1.982913 v -2.275064 -2.275065 h -1.982913 -1.982912 v 2.275065 2.275064 H 25.777873 23.79496 v -2.275064 -2.275065 h -1.982913 -1.982912 v 2.275065 2.275064 h -1.98292 -1.982913 v -2.275064 -2.275065 h -1.982913 -1.982912 v 2.275065 2.275064 H 9.914564 7.931651 V 29.575843 27.300778 H 5.948738 3.965826 V 25.025711 22.750646 H 5.948738 7.931651 V 20.475581 18.200517 H 5.948738 3.965826 V 15.925452 13.650388 H 5.948738 7.931651 V 11.375323 9.1002577 H 5.948738 3.965826 V 6.8251937 4.5501291 h 1.982912 1.982913 v 2.2750646 2.275064 h 1.982913 1.982913 V 6.8251937 4.5501291 h 1.982912 1.982913 v 2.2750646 2.275064 h 1.982913 1.982913 V 6.8251937 4.5501291 h 1.982912 1.982913 v 2.2750646 2.275064 h 1.982913 1.982913 V 6.8251937 4.5501291 h 1.982912 1.982913 v 2.2750646 2.275064 h 1.982913 1.982912 V 6.8251937 4.5501291 h 1.982913 1.982913 v 2.2750646 2.275064 h 1.981527 1.981527 l 0.02121,-2.252313 0.02122,-2.2523143 1.963083,-0.024341 1.963084,-0.02434 v 2.2766543 2.276654 h 1.982913 1.982912 V 6.8251937 4.5501291 h 1.982913 1.982913 v 2.2750646 2.275064 h 1.982913 1.982912 V 6.8251937 4.5501291 h 1.982913 1.982913 v 2.2750646 2.275064 h 1.982913 1.982912 V 6.8251937 4.5501291 h 1.982913 1.982913 v 2.2750646 2.275064 h 1.982913 1.982912 v 2.2750653 2.275065 h -1.982912 -1.982913 v 2.275064 2.275065 h 1.982913 1.982912 v 2.275064 2.275065 h -1.982912 -1.982913 v 2.275065 2.275064 h 1.982913 1.982912 v 2.275065 2.275064 h -1.982912 -1.982913 z m -3.965826,-4.550129 v -2.275065 h 1.982913 1.982913 v -2.275065 -2.275064 h -1.982913 -1.982913 v -2.275065 -2.275064 h 1.982913 1.982913 V 11.375323 9.1002577 h -1.982913 -1.982913 v 2.2750653 2.275065 H 65.436121 63.453208 V 11.375323 9.1002577 h -1.982913 -1.982913 v 2.2750653 2.275065 H 57.50447 55.521557 V 11.375323 9.1002577 h -1.982913 -1.982913 v 2.2750653 2.275065 H 49.572819 47.589906 V 11.375323 9.1002577 H 45.606993 43.62408 v 2.2750653 2.275065 H 41.641168 39.658255 V 11.375323 9.1002577 h -1.982913 -1.982913 v 2.2750653 2.275065 H 33.709517 31.726604 V 11.375323 9.1002577 h -1.982913 -1.982912 v 2.2750653 2.275065 H 25.777866 23.794953 V 11.375323 9.1002577 H 21.81204 19.829128 v 2.2750653 2.275065 H 17.846215 15.863302 V 11.375323 9.1002577 h -1.982913 -1.982912 v 2.2750653 2.275065 H 9.914564 7.931651 v 2.275064 2.275065 h 1.982913 1.982913 v 2.275064 2.275065 H 9.914564 7.931651 v 2.275065 2.275064 h 1.982913 1.982913 v -2.275064 -2.275065 h 1.982912 1.982913 v 2.275065 2.275064 h 1.982913 1.982913 v -2.275064 -2.275065 h 1.982912 1.982913 v 2.275065 2.275064 h 1.982913 1.982913 v -2.275064 -2.275065 h 1.982912 1.982913 v 2.275065 2.275064 h 1.982913 1.982912 v -2.275064 -2.275065 h 1.982913 1.982913 v 2.275065 2.275064 h 1.982913 1.982912 v -2.275064 -2.275065 h 1.982913 1.982913 v 2.275065 2.275064 h 1.982913 1.982912 v -2.275064 -2.275065 h 1.982913 1.982913 v 2.275065 2.275064 h 1.982913 1.982912 v -2.275064 -2.275065 h 1.982913 1.982913 v 2.275065 2.275064 h 1.982913 1.982912 z m -3.965825,-4.55013 v -2.275064 h -1.982913 -1.982913 v 2.275064 2.275065 H 57.50447 55.521557 v -2.275065 -2.275064 h -1.982913 -1.982913 v 2.275064 2.275065 H 49.572819 47.589906 V 20.475581 18.200517 H 45.606993 43.62408 v 2.275064 2.275065 h -1.982912 -1.982913 v -2.275065 -2.275064 h -1.982913 -1.982913 v 2.275064 2.275065 h -1.982912 -1.982913 v -2.275065 -2.275064 h -1.982913 -1.982912 v 2.275064 2.275065 H 25.777866 23.794953 V 20.475581 18.200517 H 21.81204 19.829128 v 2.275064 2.275065 h -1.982913 -1.982913 v -2.275065 -2.275064 h -1.982913 -1.982912 v -2.275065 -2.275064 h 1.982912 1.982913 v 2.275064 2.275065 h 1.982913 1.982913 v -2.275065 -2.275064 h 1.982912 1.982913 v 2.275064 2.275065 h 1.982913 1.982913 v -2.275065 -2.275064 h 1.982912 1.982913 v 2.275064 2.275065 h 1.982913 1.982912 v -2.275065 -2.275064 h 1.982913 1.982913 v 2.275064 2.275065 h 1.982913 1.982912 v -2.275065 -2.275064 h 1.982913 1.982913 v 2.275064 2.275065 h 1.982913 1.982912 v -2.275065 -2.275064 h 1.982913 1.982913 v 2.275064 2.275065 h 1.982913 1.982912 v -2.275065 -2.275064 h 1.982913 1.982913 v 2.275064 2.275065 h 1.982913 1.982912 v 2.275064 2.275065 h -1.982912 -1.982913 z m 14.956827,14.924424 c 0,-0.100103 -0.02804,-0.182005 -0.06232,-0.182005 -0.03428,0 -0.06232,0.0819 -0.06232,0.182005 0,0.100103 0.02804,0.182005 0.06232,0.182005 0.03428,0 0.06232,-0.0819 0.06232,-0.182005 z m 0.271943,0 c 0,-0.05005 -0.03569,-0.091 -0.07932,-0.091 -0.04362,0 -0.07932,0.04095 -0.07932,0.091 0,0.05005 0.03569,0.091 0.07932,0.091 0.04362,0 0.07932,-0.04095 0.07932,-0.091 z m -0.182404,-0.487171 c 0.03489,-0.06774 0.116968,-0.146406 0.182404,-0.17482 0.06544,-0.02841 -0.01277,-0.05489 -0.173781,-0.05884 -0.316309,-0.0078 -0.455408,0.126857 -0.306371,0.296503 0.07088,0.08069 0.08042,0.068 0.04012,-0.05343 -0.0376,-0.11331 -0.01362,-0.159254 0.0831,-0.159254 0.08825,0 0.119931,0.04789 0.09029,0.136504 -0.05688,0.170064 -10e-4,0.178911 0.08423,0.01334 z m -0.01589,-0.422855 c 0.06548,-0.121563 -0.02252,-0.273008 -0.158633,-0.273008 -0.158523,0 -0.231665,0.180255 -0.123227,0.303688 0.07088,0.08069 0.08042,0.068 0.04012,-0.05343 -0.0376,-0.11331 -0.01362,-0.159254 0.0831,-0.159254 0.08825,0 0.119931,0.04789 0.09029,0.136504 -0.05151,0.154014 -0.0063,0.184102 0.06834,0.0455 z m 0.198292,-0.43146 c -0.06544,-0.02919 -0.15778,-0.113498 -0.205208,-0.187342 -0.04743,-0.07384 -0.136659,-0.111385 -0.198291,-0.08342 -0.08255,0.03745 -0.07551,0.05273 0.02674,0.05802 0.07634,0.0039 0.138804,0.05291 0.138804,0.108801 0,0.05681 -0.06994,0.08063 -0.158633,0.05402 -0.08725,-0.02618 -0.158633,-0.01048 -0.158633,0.03489 0,0.04537 0.151693,0.07925 0.337095,0.0753 0.185403,-0.0039 0.283557,-0.03107 0.218121,-0.06027 z m -0.197744,-0.479581 c 0.03025,-0.05615 0.03357,-0.126672 0.0074,-0.15671 -0.02618,-0.03004 -0.04815,0.0034 -0.04881,0.07431 -0.001,0.106152 -0.01479,0.104812 -0.0781,-0.0076 -0.06834,-0.121336 -0.07716,-0.121336 -0.07932,0 -0.0022,0.121337 -0.01178,0.121337 -0.08657,0 -0.07479,-0.121336 -0.08054,-0.121336 -0.0517,0 0.04013,0.16888 0.262619,0.228269 0.337108,0.08999 z m -0.05242,-0.674505 c -0.133469,-0.167903 -0.306037,-0.130063 -0.303833,0.06662 7.61e-4,0.06803 0.02804,0.05974 0.07327,-0.02227 0.06151,-0.111526 0.09326,-0.112255 0.216906,-0.005 0.13631,0.11826 0.137115,0.115939 0.01366,-0.03937 z m 0.137767,-0.337712 c 0.0495,-0.09189 0.05682,-0.08825 -0.224694,-0.111947 -0.119967,-0.0101 -0.218121,0.0089 -0.218121,0.04228 0,0.09533 0.395473,0.157548 0.442815,0.06966 z m -0.08589,-0.351806 c 0.06548,-0.121564 -0.02252,-0.273008 -0.158633,-0.273008 -0.158523,0 -0.231665,0.180254 -0.123227,0.303687 0.07088,0.08069 0.08042,0.068 0.04012,-0.05343 -0.0376,-0.11331 -0.01362,-0.159255 0.0831,-0.159255 0.08825,0 0.119931,0.04789 0.09029,0.136504 -0.05151,0.154014 -0.0063,0.184102 0.06834,0.0455 z m 0.08258,-5.739218 c 0.02875,-0.05338 0.03086,-0.121633 0.0047,-0.151671 -0.02618,-0.03004 -0.0476,9.9e-4 -0.0476,0.06895 0,0.07938 -0.04063,0.0604 -0.113635,-0.05308 -0.09108,-0.141584 -0.133589,-0.154069 -0.214155,-0.0629 -0.08081,0.09145 -0.08093,0.13606 -6.42e-4,0.227507 0.08008,0.09121 0.0894,0.08219 0.04704,-0.0455 -0.03062,-0.09228 -0.01591,-0.159254 0.03496,-0.159254 0.04829,0 0.0878,0.06143 0.0878,0.136504 0,0.157625 0.124742,0.182039 0.201552,0.03945 z"
       id="path717"
       clip-path="url(#clipPath765)"
       transform="translate(-194.0478,20.438608)" /></g></svg>
